# xmcd CD database file
#
# Track frame offsets:
#	150
#	28369
#	60678
#	88177
#	106805
#	129460
#	150119
#	172531
#	185306
#	219288
#	249865
#	274706
#	288309
#
# Disc length: 4220 seconds
#
# Revision: 0
# Processed by: cddbd v1.5.2PL0 Copyright (c) Steve Scherf et al.
# Submitted via: CDex 1.70beta2
#
DISCID=a1107a0d
DTITLE=Harvey Sorgen - Rumble Seat
DYEAR=2008
DGENRE=Jazz
TTITLE0=Eyes
TTITLE1=In The Core
TTITLE2=The Plaintative Heart
TTITLE3=Auslander
TTITLE4=Beauty In The Fan
TTITLE5=Zabadoo
TTITLE6=Gerty Girth
TTITLE7=Russian Roulette
TTITLE8=Surge
TTITLE9=TRILO 6
TTITLE10=Baron Barracuda
TTITLE11=Heliopolis
TTITLE12=The Dragons Lair
EXTD=YEAR: 2008
EXTT0=
EXTT1=
EXTT2=
EXTT3=
EXTT4=
EXTT5=
EXTT6=
EXTT7=
EXTT8=
EXTT9=
EXTT10=
EXTT11=
EXTT12=
PLAYORDER=
